<svg viewBox="0 0 1323 1323" fill="none" xmlns="http://www.w3.org/2000/svg">
        <g id="symbol">
            <path d="M506.5 606C526.5 561 584.471 493.762 662 430C737.033 492.087 797.284 562 817 606.5C834.5 646 828 655.5 792 679.5C746.331 705.104 706.5 718 662 718C611 716.5 566.5 701.632 532 679.5C495.5 656.085 488.278 647 506.5 606Z" fill="#F6F6F6"/>
            <path d="M536 274.5C570 252.5 604 240 662 238C717.5 238 763 257 787.5 274.5C744.5 268.5 698 288.5 662 310C623.5 286.5 580 269.5 536 274.5Z" fill="#F6F6F6"/>
            <path d="M471.999 623C397.5 527.5 409 388 494.5 306C516 303.5 541.361 318.397 596.999 371C526 451.5 455.5 575 471.999 623Z" fill="#F6F6F6"/>
            <path d="M727 370C772 326 802.5 305 828.5 305C921.5 397.5 921 535 851 623C867.5 576.5 797.5 453 727 370Z" fill="#F6F6F6"/>
            <path d="M506.5 606C526.5 561 584.471 493.762 662 430C737.033 492.087 797.284 562 817 606.5C834.5 646 828 655.5 792 679.5C746.331 705.104 706.5 718 662 718C611 716.5 566.5 701.632 532 679.5C495.5 656.085 488.278 647 506.5 606Z" stroke="#F6F6F6" stroke-width="2"/>
            <path d="M536 274.5C570 252.5 604 240 662 238C717.5 238 763 257 787.5 274.5C744.5 268.5 698 288.5 662 310C623.5 286.5 580 269.5 536 274.5Z" stroke="#F6F6F6" stroke-width="2"/>
            <path d="M471.999 623C397.5 527.5 409 388 494.5 306C516 303.5 541.361 318.397 596.999 371C526 451.5 455.5 575 471.999 623Z" stroke="#F6F6F6" stroke-width="2"/>
            <path d="M727 370C772 326 802.5 305 828.5 305C921.5 397.5 921 535 851 623C867.5 576.5 797.5 453 727 370Z" stroke="#F6F6F6" stroke-width="2"/>
        </g>
        <g id="xbox-logo">
            <path id="x1" d="M238 930L138 792H186.5L263 897L338 792H388L287 930L396 1080H346L263 964L178 1080H129L238 930Z" fill="#F6F6F6" stroke="#F6F6F6" stroke-width="2"/>
            <path id="x2" d="M1037 930L937 792H985.5L1062 897L1137 792H1187L1086 930L1195 1080H1145L1062 964L977 1080H928L1037 930Z" fill="#F6F6F6" stroke="#F6F6F6" stroke-width="2"/>
            <path id="b" fill-rule="evenodd" clip-rule="evenodd" d="M419 792V915H382L355 951.5H419V1080H555.5C602 1080 650.5 1059.5 650.5 995C650.5 968.5 631 942 601 930C629.453 910.274 637.5 899.5 637.5 858.5C637.5 823 599 792 553.5 792H419ZM554.5 915H463V872.5V830H554.5C575.5 830 596 848.5 596 868.5C596 898.5 580.908 910.687 554.5 915ZM560.5 1041.5H463V994.5V952H564C585.5 952 606.5 971 606.5 991.5C606.5 1041.5 564 1041.5 560.5 1041.5Z" fill="#F6F6F6" stroke="#F6F6F6" stroke-width="2"/>
            <path id="o" fill-rule="evenodd" clip-rule="evenodd" d="M806 786C725.5 786 665 839.5 665 935C665 1026.5 721.5 1086 806 1086C889.5 1086 947 1026.5 947 935C947 861 904 786 806 786ZM711 935C711 866.5 750.5 825 806 825C858.5 825 901 861 901 935C901 1012.5 859 1046 806 1046C746 1046 711 1003.5 711 935Z" fill="#F6F6F6" stroke="#F6F6F6" stroke-width="2"/>
        </g>
    </svg>